PathFileType        4      (X/Y/Z)      /Users/FranklinZhao/OpenSimProject/Simulation/Models/Rajapogal_2015/marker_data/trc/transformed_SN001_0010_10m_01.trc         
DataRate	CameraRate	NumFrames	NumMarkers	Units	OrigDataRate	OrigDataStartFrame	OrigNumFrames
200.0	200.0	4	72	mm	200.0	561	641
Frame#	Time	LPSIS			RPSIS			LICR			RICR			LASIS			RASIS			STER			XPRO			C7			T4			T8			T10			RUA1			RUA2			RUA3			RUA4			RHLE			RHME			RTEMP			RHEAD			LHEAD			LTEMP			RACR			LACR			LUA1			LUA2			LUA3			LUA4			LHLE			LHME			LFA1			LFA2			LFA3			LRSP			LUSP			RFA1			RFA2			RFA3			RRSP			RUSP			LTH1			LTH2			LTH3			LTH4			LFLE			LFME			LSK1			LSK2			LSK3			LSK4			LTAM			LFAL			LFCC			LFMT1			LFMT2			LFMT5			RTH1			RTH2			RTH3			RTH4			RFLE			RFME			RSK1			RSK2			RSK3			RSK4			RFAL			RTAM			RFCC			RFMT1			RFMT2			RFMT5			
		X1	Y1	Z1	X2	Y2	Z2	X3	Y3	Z3	X4	Y4	Z4	X5	Y5	Z5	X6	Y6	Z6	X7	Y7	Z7	X8	Y8	Z8	X9	Y9	Z9	X10	Y10	Z10	X11	Y11	Z11	X12	Y12	Z12	X13	Y13	Z13	X14	Y14	Z14	X15	Y15	Z15	X16	Y16	Z16	X17	Y17	Z17	X18	Y18	Z18	X19	Y19	Z19	X20	Y20	Z20	X21	Y21	Z21	X22	Y22	Z22	X23	Y23	Z23	X24	Y24	Z24	X25	Y25	Z25	X26	Y26	Z26	X27	Y27	Z27	X28	Y28	Z28	X29	Y29	Z29	X30	Y30	Z30	X31	Y31	Z31	X32	Y32	Z32	X33	Y33	Z33	X34	Y34	Z34	X35	Y35	Z35	X36	Y36	Z36	X37	Y37	Z37	X38	Y38	Z38	X39	Y39	Z39	X40	Y40	Z40	X41	Y41	Z41	X42	Y42	Z42	X43	Y43	Z43	X44	Y44	Z44	X45	Y45	Z45	X46	Y46	Z46	X47	Y47	Z47	X48	Y48	Z48	X49	Y49	Z49	X50	Y50	Z50	X51	Y51	Z51	X52	Y52	Z52	X53	Y53	Z53	X54	Y54	Z54	X55	Y55	Z55	X56	Y56	Z56	X57	Y57	Z57	X58	Y58	Z58	X59	Y59	Z59	X60	Y60	Z60	X61	Y61	Z61	X62	Y62	Z62	X63	Y63	Z63	X64	Y64	Z64	X65	Y65	Z65	X66	Y66	Z66	X67	Y67	Z67	X68	Y68	Z68	X69	Y69	Z69	X70	Y70	Z70	X71	Y71	Z71	X72	Y72	Z72	
561	2.8	2752.893310546875	1003.161315917969	-266.41406250000017	2747.130859375	999.949462890625	-188.19320678710957	2775.40576171875	1063.382690429688	-352.27902221679705	2769.5087890625	1075.929565429688	-90.62383270263692	2950.079833984375	989.8997192382811	-340.809265136719	2931.928466796875	973.95166015625	-83.03532409667987	2897.239501953125	1450.267700195312	-237.60455322265645	2965.427001953125	1244.881469726562	-226.28912353515642	2761.8193359375	1549.170776367188	-238.54357910156278	2711.781005859375	1435.916870117188	-247.74844360351585	2713.882568359375	1303.093505859375	-228.80615234375023	2719.803955078125	1258.36376953125	-230.88827514648463	2773.705322265625	1341.221069335938	13.442249298095453	2848.74755859375	1338.224487304688	8.570996284484618	2857.778564453125	1266.5166015625	25.12111663818336	2784.645263671875	1257.7607421875	31.70518493652321	2818.705810546875	1171.627685546875	39.20833587646462	2806.627685546875	1157.098266601562	-40.372417449951385	2919.781494140625	1708.733642578125	-167.3753051757815	2964.042236328125	1717.190795898438	-201.8872375488284	2965.92626953125	1711.192016601562	-283.67971801757847	2917.263427734375	1694.474853515625	-321.9750061035159	2807.90673828125	1508.950317382812	-53.72999572753934	2805.532470703125	1490.0234375	-427.3790283203128	2830.139404296875	1326.47705078125	-468.8930664062502	2755.72119140625	1315.47998046875	-474.91409301757835	2756.20556640625	1229.5390625	-485.9450378417971	2829.705078125	1239.475952148438	-478.8418579101564	2788.328369140625	1156.525512695312	-482.7064208984377	2751.036376953125	1148.289306640625	-414.9821472167971	2875.243408203125	935.5618896484374	-452.64144897460955	2876.13037109375	941.3274536132811	-499.1841125488283	2861.187744140625	910.7756958007811	-470.39141845703136	2831.90673828125	877.6268310546874	-442.97241210937517	2817.262451171875	880.3775024414061	-511.51818847656267	2944.372802734375	1021.929443359375	92.25648498535138	2969.68505859375	1022.161315917969	53.584194183349425	2963.197265625	990.1444091796875	65.80857849121075	2980.8564453125	937.7056274414062	40.04000473022444	2937.719970703125	934.7772216796875	89.86228179931624	2959.3955078125	712.1588745117186	-386.309783935547	2908.851318359375	702.5640869140624	-385.4461059570313	2920.85302734375	598.3417358398436	-364.1874389648439	2985.183837890625	614.3295898437499	-368.8502807617189	2964.403564453125	516.4082641601561	-341.735321044922	2950.19189453125	505.31628417968744	-224.411346435547	2951.05126953125	333.50796508789057	-359.72943115234386	2889.40576171875	336.19094848632807	-355.65509033203125	2884.6796875	250.21910095214835	-338.0213928222657	2948.8896484375	251.94186401367185	-344.60968017578125	2944.910888671875	86.12472534179683	-226.58128356933594	2902.687255859375	69.90957641601557	-297.7723388671875	2872.622314453125	36.01025772094723	-243.2749938964844	3084.8349609375	27.886676788330035	-258.7359619140625	3078.330322265625	29.817068099975536	-296.2913513183594	3028.96923828125	21.975028991699155	-339.9378662109375	2864.78759765625	711.4981079101562	-54.10795974731458	2922.369140625	698.4224853515625	-44.59033966064466	2935.69580078125	612.9369506835938	-52.731815338134886	2873.6708984375	610.6234741210938	-68.45765686035168	2905.7802734375	506.0289916992188	-74.88148498535166	2931.835205078125	478.4463806152343	-192.1288604736329	2762.559326171875	425.5527648925781	-71.86099243164071	2809.998779296875	392.2938537597656	-59.491992950439524	2727.592529296875	323.5788879394531	-81.61309051513678	2695.74072265625	378.5615844726562	-87.12274169921882	2543.376953125	261.5783081054688	-139.89964294433597	2590.074462890625	228.28207397460938	-203.16937255859384	2514.237060546875	272.8761901855468	-196.26820373535165	2565.146484375	93.12399291992185	-150.87666320800784	2563.51123046875	93.43620300292966	-119.86175537109382	2536.04345703125	128.00038146972656	-84.191520690918	
562	2.805	2760.99609375	1004.972778320312	-267.4062805175783	2755.72900390625	1002.392944335938	-189.20030212402358	2785.33447265625	1065.269897460938	-352.1484680175783	2776.1796875	1077.91455078125	-90.15660858154317	2958.383056640625	990.8205566406249	-341.31036376953136	2940.18115234375	976.0300903320312	-83.51383209228534	2905.265380859375	1451.702758789062	-237.38369750976585	2973.670654296875	1246.488647460938	-226.47622680664082	2770.03466796875	1550.4970703125	-238.37658691406278	2720.04833984375	1437.253662109375	-247.97695922851585	2722.400634765625	1304.512939453125	-229.31448364257832	2728.379638671875	1259.602905273438	-231.62808227539082	2781.390380859375	1342.307739257812	13.466125488281003	2856.423828125	1338.842895507812	8.071250915527099	2865.3740234375	1267.150634765625	24.258594512939215	2792.40576171875	1258.5	31.36662483215309	2825.09765625	1171.95703125	38.0563735961912	2813.37158203125	1158.102905273438	-41.708850860595916	2928.413330078125	1710.001831054688	-166.9081115722659	2972.364501953125	1718.356323242188	-201.4296875000003	2974.35546875	1712.442138671875	-283.26675415039097	2925.677978515625	1695.92724609375	-321.6200256347659	2815.642822265625	1510.01611328125	-53.608409881592074	2814.230712890625	1491.9609375	-427.3229980468753	2840.512451171875	1328.9755859375	-469.0679321289064	2766.232666015625	1316.815551757812	-475.50332641601585	2767.8681640625	1230.63671875	-486.72845458984403	2841.317626953125	1241.8583984375	-479.39520263671903	2800.271728515625	1158.086303710938	-483.61209106445335	2763.759033203125	1149.392944335938	-415.9160766601564	2891.741455078125	939.1199951171874	-453.57617187500017	2892.596923828125	944.8787231445311	-500.04440307617205	2878.30712890625	913.8524169921874	-471.3518371582033	2849.207763671875	879.7874755859374	-443.40158081054705	2835.412841796875	882.7760009765624	-512.3271484375001	2948.3876953125	1020.234436035156	91.61870574951153	2973.4296875	1019.625183105469	53.00956344604474	2966.263916015625	987.8103637695312	65.33982849121075	2982.765380859375	934.84765625	39.60641479492171	2939.78076171875	933.354248046875	89.47015380859358	2964.966552734375	712.1586303710936	-387.1849365234376	2913.761962890625	703.0048217773436	-385.4629821777345	2924.46435546875	598.5530395507811	-364.1206054687501	2988.822998046875	614.0336914062499	-368.67776489257824	2966.68798828125	516.2757568359374	-341.7637939453126	2951.3828125	504.91201782226557	-224.3785095214845	2952.66552734375	333.7305603027343	-359.88220214843756	2890.87109375	336.46475219726557	-356.00524902343756	2885.7236328125	250.47760009765614	-338.3873596191407	2949.901611328125	251.98892211914054	-344.6335754394532	2945.244873046875	86.20619201660152	-226.44081115722662	2902.63427734375	70.04332733154291	-297.7455139160156	2872.671142578125	36.132194519042926	-243.1423492431641	3084.82421875	27.761053085327102	-258.7517395019531	3078.408935546875	29.795183181762646	-296.3559875488281	3028.978515625	21.973730087280206	-340.006591796875	2876.5478515625	712.5913696289062	-54.4261283874513	2935.031982421875	700.7799072265625	-44.65977859497083	2949.57470703125	615.4612426757812	-52.62227630615245	2887.780029296875	612.3310546875	-69.05867004394543	2921.85498046875	508.3002319335938	-75.1888656616212	2948.707275390625	481.23391723632807	-192.29626464843759	2779.8173828125	426.5536193847656	-72.7539596557618	2827.62451171875	394.1213073730469	-60.10927581787116	2745.80029296875	324.273193359375	-81.66313934326178	2713.585693359375	378.911376953125	-87.68962097167976	2562.645263671875	259.8059997558594	-139.75233459472665	2610.796875	227.52085876464838	-202.96945190429693	2532.5322265625	269.82794189453114	-196.56820678710946	2589.03759765625	91.85177612304685	-150.60163879394534	2587.9921875	92.54312896728513	-119.32051086425781	2559.01025390625	126.05662536621088	-84.1191101074219	
563	2.81	2769.35693359375	1005.810363769531	-268.17272949218767	2764.322265625	1002.811340332031	-190.38630676269548	2796.15087890625	1065.651000976562	-351.27404785156267	2786.396240234375	1079.294311523438	-91.92310333251973	2966.671875	991.6812133789061	-341.759460449219	2948.205810546875	977.7034912109375	-83.96289062500018	2913.442626953125	1453.178955078125	-237.22137451171906	2982.01904296875	1247.971435546875	-226.72097778320332	2778.28955078125	1551.922607421875	-238.1043395996097	2728.363037109375	1438.78662109375	-248.10212707519557	2730.678466796875	1306.04736328125	-229.84477233886741	2736.870361328125	1261.263305664062	-232.16699218750023	2789.143798828125	1343.031372070312	13.390571594238033	2863.9873046875	1339.309204101562	7.58202171325659	2872.753662109375	1267.546752929688	23.318628311156996	2800.179443359375	1259.5546875	30.91044616699196	2832.031494140625	1172.437133789062	36.958820343017365	2819.7568359375	1158.963989257812	-43.812591552734595	2936.704345703125	1711.009521484375	-166.50936889648472	2981.042236328125	1719.555908203125	-201.07528686523472	2982.842041015625	1713.681762695312	-282.8348083496097	2934.176513671875	1697.170043945312	-321.2451171875003	2823.243896484375	1510.62890625	-53.46335601806669	2822.832763671875	1493.576171875	-427.1467590332034	2850.72314453125	1330.9384765625	-469.2608337402346	2776.85205078125	1318.084228515625	-476.1631469726564	2779.671875	1232.149780273438	-487.8689575195314	2852.732421875	1244.019897460938	-479.8619079589846	2813.096435546875	1159.952392578125	-484.5713500976564	2776.07861328125	1149.905151367188	-416.9106445312502	2908.373046875	942.7044677734374	-454.458679199219	2909.173828125	948.5795288085936	-501.02325439453136	2895.4326171875	917.0784912109374	-472.42343139648455	2866.4033203125	882.0772094726561	-443.70651245117205	2853.15869140625	885.2485351562499	-513.2174682617189	2951.989990234375	1018.250427246094	90.84285736083966	2977.1181640625	1017.102844238281	52.08975982665998	2969.257080078125	985.6712036132812	64.94532775878888	2984.58447265625	932.1611938476562	39.18717956542952	2941.51513671875	931.9642944335938	89.21215820312483	2969.394775390625	714.2994384765624	-389.5011596679689	2918.9990234375	704.1416015624999	-385.8177185058595	2927.8935546875	599.3184204101561	-364.6260986328126	2995.820556640625	613.0473632812499	-366.0394287109376	2968.066162109375	516.2030639648436	-342.3277587890626	2953.216796875	505.17443847656244	-224.3743591308595	2954.10400390625	333.7342224121093	-359.9580383300782	2892.247314453125	336.70166015624994	-356.36364746093756	2886.84130859375	250.60304260253903	-338.74276733398443	2950.964111328125	252.01844787597653	-344.62646484375006	2945.339111328125	86.31384277343746	-226.38604736328122	2902.660888671875	70.20716094970697	-297.7274475097656	2872.765625	36.18457031249996	-243.122314453125	3084.846435546875	27.640918731689403	-258.7401428222656	3078.485107421875	29.705659866332958	-296.4134216308594	3028.8564453125	21.836332321166925	-340.1047668457031	2887.328857421875	713.85791015625	-54.574718475341925	2947.4130859375	703.1121826171875	-44.61602783203138	2963.427001953125	618.0942993164062	-52.66930770874034	2901.879150390625	613.8906860351562	-69.57942199707043	2938.1357421875	510.9530639648438	-75.5183334350587	2964.885009765625	483.85461425781244	-192.55303955078128	2797.358154296875	427.8012084960938	-73.44656372070321	2845.38818359375	395.6493530273438	-60.48763275146491	2764.472900390625	324.899169921875	-81.93312835693365	2731.5166015625	379.007568359375	-88.19675445556648	2582.144775390625	257.5696716308594	-139.46025085449224	2629.670654296875	225.83990478515616	-203.51844787597662	2551.2431640625	266.63232421874994	-196.64532470703125	2613.289794921875	90.33908081054685	-150.50848388671884	2611.952392578125	91.1610412597656	-119.71110534667972	2582.05810546875	123.66974639892578	-84.20334625244143	
564	2.815	2777.72509765625	1007.422912597656	-268.84375000000017	2772.159423828125	1004.846740722656	-190.40647888183608	2803.20068359375	1067.098510742188	-353.32186889648455	2794.554443359375	1080.7802734375	-92.29821014404317	2975.13134765625	992.5808105468749	-342.1343078613283	2956.475830078125	979.7686767578125	-84.4998092651369	2921.62451171875	1454.5810546875	-237.08174133300807	2990.495361328125	1249.4619140625	-226.93751525878932	2786.585205078125	1553.240112304688	-237.93583679199247	2736.698974609375	1440.171508789062	-248.43841552734406	2739.132568359375	1307.39501953125	-230.64009094238304	2745.149658203125	1262.68212890625	-232.94728088378932	2796.920166015625	1343.70556640625	13.290920257568112	2871.725341796875	1339.893310546875	7.012932777404539	2880.54736328125	1268.064453125	22.493782043456797	2807.66259765625	1259.999877929688	30.49686431884743	2839.068359375	1173.442993164062	35.6930923461912	2826.6572265625	1159.935424804688	-44.820022583008026	2945.322998046875	1712.203735351562	-166.09114074707063	2989.44287109375	1720.63720703125	-200.58531188964872	2991.4755859375	1714.905029296875	-282.30691528320347	2942.60107421875	1698.402221679688	-320.6876831054691	2831.395263671875	1511.8017578125	-53.42424392700223	2831.430419921875	1495.393310546875	-427.0233154296878	2860.8857421875	1333.109252929688	-469.57705688476585	2787.238525390625	1319.266357421875	-476.73867797851585	2791.20068359375	1233.4609375	-488.5788269042971	2864.13623046875	1246.164184570312	-480.4604492187502	2826.119873046875	1161.7978515625	-485.7146606445314	2788.613037109375	1151.1298828125	-417.95086669921903	2925.162109375	946.5142211914061	-455.40206909179705	2925.472900390625	952.3074951171874	-501.99493408203136	2912.6826171875	920.4484863281249	-473.31542968750017	2883.70654296875	884.4753417968749	-444.09088134765636	2871.223388671875	887.6313476562499	-514.1721801757814	2955.6103515625	1016.691040039062	90.36494445800763	2980.90869140625	1014.747375488281	51.67636871337873	2972.23828125	983.5587158203125	64.46583557128888	2986.159912109375	929.4190673828125	38.69934082031233	2943.1318359375	930.5181274414062	88.87648773193342	2974.404541015625	711.6510620117186	-385.4674072265626	2924.531494140625	704.9507446289061	-386.860809326172	2931.322265625	599.7227783203124	-364.5335083007813	2994.2421875	613.5619506835936	-367.6131591796876	2969.88330078125	516.1140747070311	-342.86318969726574	2954.38916015625	505.18753051757807	-224.34379577636727	2955.6826171875	333.5850524902343	-360.08630371093756	2893.8125	336.82861328124994	-356.82775878906256	2888.139892578125	251.16209411621085	-339.1841125488282	2952.217529296875	252.02287292480463	-344.6578674316407	2945.3642578125	86.28839111328121	-226.44496154785162	2902.75341796875	70.23124694824213	-297.7326354980469	2872.875	36.14024734497066	-242.9212951660156	3084.856201171875	27.547891616821243	-258.7444458007812	3078.61767578125	29.691015243530217	-296.4547424316406	3028.908447265625	21.809276580810486	-340.1656494140625	2899.70751953125	715.4669189453125	-55.027118682861456	2960.0283203125	705.5474853515625	-44.901561737060675	2977.3056640625	620.6865844726562	-52.58531570434582	2915.965576171875	615.7059326171875	-69.9120559692384	2953.753662109375	513.3250732421875	-75.54888916015635	2979.501220703125	485.60943603515614	-193.1459350585939	2814.774169921875	428.4140930175781	-74.18008422851571	2863.0078125	397.2044677734375	-61.04549789428718	2783.04296875	325.1856994628906	-82.12194824218756	2749.5048828125	378.9976806640625	-88.7455139160157	2601.86083984375	255.16973876953116	-139.00743103027347	2649.933837890625	224.34953308105466	-203.64489746093753	2569.91015625	262.68472290039057	-196.44987487792974	2638.678466796875	88.99008178710935	-150.05076599121094	2637.11376953125	89.60581970214841	-119.47917938232422	2605.884521484375	120.97264099121088	-84.052360534668	
